<svg width="190" height="191" viewBox="0 0 190 191" fill="none" xmlns="http://www.w3.org/2000/svg">
<circle cx="95.0599" cy="95.5872" r="94.681" fill="#DE962B"/>
<circle cx="95.7512" cy="96.2783" r="82.9322" fill="#FDF0CF"/>
<path d="M98.2994 27.1682H89.288C78.5677 27.1682 71.308 38.0882 75.4568 47.9732L95.7305 96.2784L112.5 47.0006C115.811 37.2706 108.577 27.1682 98.2994 27.1682Z" fill="#E9C74F"/>
<path d="M150.013 50.0691L143.701 43.6381C136.191 35.9876 123.313 38.4563 119.165 48.3415L98.8937 96.6479L145.808 74.0957C155.071 69.6428 157.213 57.4038 150.013 50.0691Z" fill="#E9C74F"/>
<path d="M93.203 169.535H102.214C112.935 169.535 120.194 158.615 116.046 148.73L95.7719 100.425L79.0027 149.703C75.6916 159.433 82.9251 169.535 93.203 169.535Z" fill="#E9C74F"/>
<path d="M145.362 151.077L151.78 144.752C159.415 137.226 156.92 124.353 147.026 120.225L98.6786 100.053L121.327 146.921C125.798 156.175 138.042 158.292 145.362 151.077Z" fill="#E9C74F"/>
<path d="M169.008 101.591V92.5796C169.008 81.8593 158.088 74.5996 148.203 78.7484L99.8976 99.0221L149.175 115.791C158.905 119.102 169.008 111.869 169.008 101.591Z" fill="#E9C74F"/>
<path d="M22.4941 96.4945V105.506C22.4941 116.226 33.4141 123.486 43.2991 119.337L91.6043 99.0633L42.3264 82.2941C32.5965 78.9831 22.4941 86.2166 22.4941 96.4945Z" fill="#E9C74F"/>
<path d="M42.9717 147.829L49.4017 154.142C57.0511 161.653 69.8818 158.947 73.8471 148.987L93.224 100.315L46.7339 123.728C37.5544 128.351 35.638 140.628 42.9717 147.829Z" fill="#E9C74F"/>
<path d="M45.6014 46.3051L39.3317 52.7779C31.873 60.478 34.6658 73.2901 44.6525 77.1877L93.4547 96.2339L69.7266 49.9037C65.0414 40.7558 52.7523 38.9227 45.6014 46.3051Z" fill="#E9C74F"/>
</svg>
