<svg width="300" height="512" viewBox="0 0 300 512" fill="none" xmlns="http://www.w3.org/2000/svg">
<path fill-rule="evenodd" clip-rule="evenodd" d="M0.428925 150.065C0.233835 67.5983 66.9284 0.587454 149.395 0.392364C231.862 0.197274 298.873 66.8918 299.068 149.359L299.795 456.486C269.586 456.557 245.155 481.104 245.226 511.313L55.9835 511.761C55.9121 481.552 31.3649 457.121 1.15598 457.192L1.15549 457.192L0.428925 150.065Z" fill="#E9DBCA"/>
<path d="M146.542 185.991L154.502 359.502C116.709 335.999 43.8617 274.068 54.8104 214.367C65.7592 154.666 120.527 170.574 146.542 185.991Z" fill="#A02929"/>
<path d="M144.583 186.089L152.547 359.673C186.773 332.856 251.25 264.597 235.348 206.102C219.446 147.607 168.212 168.387 144.583 186.089Z" fill="#A02929"/>
<path d="M98.5078 263.106C112.007 238.753 152.734 202.099 207.647 250.305C192.94 269.829 150.523 299.722 98.5078 263.106Z" stroke="black" stroke-width="6"/>
<circle cx="152.214" cy="253.44" r="26.7553" transform="rotate(-6.68991 152.214 253.44)" fill="black"/>
</svg>
