<svg width="438" height="1062" viewBox="0 0 438 1062" fill="none" xmlns="http://www.w3.org/2000/svg">
<path fill-rule="evenodd" clip-rule="evenodd" d="M0.307747 818.802L437.627 818.455L437.8 1036.67L398.979 1061L399.085 1061.12L37.9283 1061.41L0.478098 1034.07L0.307747 818.802Z" fill="#E9DBCA"/>
<path d="M122.648 793.25C96.3846 811.3 30.84 818.098 1.35054 819.24L435.793 818.896C364.633 818.952 312.623 801.731 295.514 793.113C213.222 724.128 155.477 770.686 122.648 793.25Z" fill="#E9DBCA"/>
<path d="M162.813 1042.07L100.289 1041.93L74.0258 947.236C57.7892 937.866 37.1572 954.283 28.8707 963.663C26.0474 951.471 43.0826 934.635 51.9531 927.741C48.6221 920.388 40.0865 903.343 32.5917 893.992C25.097 884.641 8.95153 890.05 1.81565 893.923C31.7189 850.173 76.0127 889.445 94.4218 914.549C120.992 892.703 149.752 904.567 162.981 914.704L163.101 914.705C177.404 893.131 213.186 857.195 241.888 886.039L249.32 894.482C242.74 891.334 232.621 887.574 226.827 891.427C218.463 894.412 204.264 906.047 199.03 928.073C210.8 928.316 235.815 935.87 241.712 964.144C229.306 952.773 200.052 933.52 182.283 947.481L162.813 1042.07Z" fill="#D16AA8"/>
<path d="M216.498 0.999986L212.436 756.648" stroke="#A46969" stroke-width="10"/>
</svg>
