<svg width="308" height="1155" viewBox="0 0 308 1155" fill="none" xmlns="http://www.w3.org/2000/svg">
<rect x="24.1402" y="679.523" width="261.579" height="434.615" transform="rotate(0.203503 24.1402 679.523)" fill="#E9DBCA"/>
<circle cx="154.709" cy="741.968" r="108.527" transform="rotate(0.203503 154.709 741.968)" fill="#E9DBCA"/>
<circle cx="153.632" cy="1045.03" r="108.527" transform="rotate(0.203503 153.632 1045.03)" fill="#E9DBCA"/>
<rect x="2.31085" y="700.19" width="305.091" height="393.633" transform="rotate(0.203503 2.31085 700.19)" fill="#E9DBCA"/>
<path d="M132.994 782.99L154.063 808.023L177.037 784.726L186.103 816.164L216.566 804.226L212.061 836.634L244.746 838.118L227.449 865.892L256.705 880.542L229.607 898.879L250.375 924.162L218.161 929.892L226.85 961.437L195.091 953.569L190.198 985.92L164.384 965.815L146.756 993.379L131.352 964.512L104.036 982.523L101.705 949.887L69.4253 955.231L80.57 924.468L48.9074 916.22L71.6009 892.65L46.0303 872.237L76.3487 859.935L61.2916 830.886L93.9926 831.979L92.0524 799.318L121.482 813.617L132.994 782.99Z" fill="#D57E40"/>
<path d="M172 1L157 633.625" stroke="#A46969" stroke-width="10"/>
</svg>
