<svg width="274" height="451" viewBox="0 0 274 451" fill="none" xmlns="http://www.w3.org/2000/svg">
<path fill-rule="evenodd" clip-rule="evenodd" d="M209.593 1.79994L2.89648 0.475586L0.0229656 448.954L270.164 450.684L272.562 76.4297L209.593 1.79994Z" fill="#E9DBCA"/>
<path d="M139.786 151.624L142.547 312.396C108.199 289.644 42.4323 230.402 54.1484 175.447C65.8645 120.492 116.122 136.667 139.786 151.624Z" fill="#A02929"/>
<path d="M137.971 151.662L140.733 312.502C173.117 288.595 234.593 227.142 221.43 172.59C208.267 118.039 160.306 135.908 137.971 151.662Z" fill="#A02929"/>
<path d="M87.2567 222.141C101.649 200.756 142.133 170.196 188.938 219.035C173.817 235.869 132.311 260.059 87.2567 222.141Z" stroke="black" stroke-width="6"/>
<circle cx="137.562" cy="217.507" r="24.7686" transform="rotate(-1.7497 137.562 217.507)" fill="black"/>
</svg>
