<svg width="473" height="292" viewBox="0 0 473 292" fill="none" xmlns="http://www.w3.org/2000/svg">
<rect x="0.732422" y="54.1411" width="471.288" height="184.504" transform="rotate(-0.0768111 0.732422 54.1411)" fill="#E9DBCA"/>
<ellipse cx="236.5" cy="145.91" rx="198.209" ry="144.896" transform="rotate(-0.0768111 236.5 145.91)" fill="#E9DBCA"/>
<path d="M275.241 207.628L214.079 207.804L187.913 115.307C171.983 106.222 151.883 122.385 143.824 131.602C141.001 119.69 157.581 103.135 166.223 96.3472C162.928 89.1707 154.493 72.5404 147.114 63.4311C139.736 54.3219 123.97 59.6934 117.009 63.5177C146.04 20.5719 189.566 58.765 207.7 83.2297C233.581 61.7256 261.774 73.1871 274.765 83.0368L274.883 83.0365C288.766 61.8612 323.587 26.5286 351.809 54.5996L359.121 62.8213C352.668 59.7752 342.751 56.1481 337.102 59.9464C328.936 62.9081 315.105 74.361 310.096 95.9333C321.611 96.1116 346.118 103.375 352.028 131.003C339.836 119.942 311.123 101.256 293.812 115.002L275.241 207.628Z" fill="#D16AA8"/>
<path d="M210.064 138.847C219.627 124.879 246.372 105.021 276.853 137.337C266.836 148.313 239.453 163.982 210.064 138.847Z" stroke="black" stroke-width="4"/>
<circle cx="243.123" cy="136.066" r="16.2658" transform="rotate(-1.29488 243.123 136.066)" fill="black"/>
</svg>
