<svg width="294" height="453" viewBox="0 0 294 453" fill="none" xmlns="http://www.w3.org/2000/svg">
<rect x="16.3283" y="1.33014" width="255.209" height="450.758" rx="127.604" transform="rotate(-0.0913722 16.3283 1.33014)" fill="#E9DBCA"/>
<path d="M0.934021 47.2039L292.601 46.7387L268.351 255.032L20.6001 255.428L0.934021 47.2039Z" fill="#E9DBCA"/>
<path d="M121.992 133.479L143.632 154.26L162.32 130.787L173.637 158.574L200.256 144.731L199.293 174.719L229.241 172.9L216.165 199.903L244.263 210.422L221.334 229.772L242.724 250.811L213.907 259.162L224.891 287.082L195.169 282.99L193.847 312.964L168.359 297.136L154.96 323.981L138.113 299.155L114.954 318.229L109.661 288.697L80.7457 296.703L87.9219 267.571L58.2506 263.123L76.6555 239.429L51.3583 223.297L77.8094 209.137L61.2604 184.111L91.1841 181.934L86.2449 152.341L114.467 162.523L121.992 133.479Z" fill="#D57E40"/>
</svg>
