<svg width="355" height="845" viewBox="0 0 355 845" fill="none" xmlns="http://www.w3.org/2000/svg">
<path d="M148.788 123.833V26H227.568V123.833C342.158 154.376 359.664 262.231 354.094 312.341V803.893C235.685 878.342 70.8032 834.913 3.16354 803.893C0.776259 694.129 -2.56594 442.149 3.16354 312.341C8.89302 182.533 102.634 132.582 148.788 123.833Z" fill="#C24D3B"/>
<path d="M25.8283 803.37L20.362 595.082C20.3426 594.343 20.6248 593.584 21.119 593.034C63.7527 545.638 144.039 676.217 187.96 571.566C222.625 488.969 301.827 488.444 339.232 498.912C340.538 499.278 341.382 500.49 341.339 501.845L331.408 813.119L25.8283 803.37Z" fill="#3E4799"/>
<path fill-rule="evenodd" clip-rule="evenodd" d="M141.03 21.3622H140.875C141.502 13.6542 147.956 7.59424 155.825 7.59424H219.815C227.685 7.59424 234.139 13.6545 234.765 21.3627H234.61C232.191 21.3627 230.23 23.3241 230.23 25.7436C230.23 28.1631 232.191 30.1245 234.61 30.1245H234.815V36.3831H234.61C232.191 36.3831 230.23 38.3444 230.23 40.7639C230.23 43.1834 232.191 45.1448 234.61 45.1448H234.815V52.6547H234.61C232.191 52.6547 230.23 54.6161 230.23 57.0356C230.23 59.4551 232.191 61.4165 234.61 61.4165H234.815V73.9333H140.825V61.4168H141.03C143.449 61.4168 145.41 59.4554 145.41 57.0359C145.41 54.6164 143.449 52.655 141.03 52.655H140.825V45.1441H141.03C143.449 45.1441 145.41 43.1827 145.41 40.7632C145.41 38.3437 143.449 36.3823 141.03 36.3823H140.825V30.124H141.03C143.449 30.124 145.41 28.1626 145.41 25.7431C145.41 23.3236 143.449 21.3622 141.03 21.3622Z" fill="#544DA7"/>
<path d="M140.825 10.084C140.825 4.56114 145.302 0.0839844 150.825 0.0839844H224.815C230.338 0.0839844 234.815 4.56114 234.815 10.084V21.3626H140.825V10.084Z" fill="#6B76D9"/>
<ellipse rx="8" ry="7.5" transform="matrix(-1 0 0 1 120 727.5)" fill="white"/>
<ellipse rx="8" ry="7.5" transform="matrix(-1 0 0 1 120 727.5)" fill="white"/>
<ellipse rx="8" ry="7.5" transform="matrix(-1 0 0 1 120 727.5)" fill="white"/>
<ellipse rx="7.5" ry="8" transform="matrix(-1 0 0 1 71.5 672)" fill="white"/>
<ellipse rx="7.5" ry="8" transform="matrix(-1 0 0 1 71.5 672)" fill="white"/>
<ellipse rx="7.5" ry="8" transform="matrix(-1 0 0 1 71.5 672)" fill="white"/>
<ellipse rx="6.5" ry="7.5" transform="matrix(-1 0 0 1 93.5 656.5)" fill="white"/>
<ellipse rx="6.5" ry="7.5" transform="matrix(-1 0 0 1 93.5 656.5)" fill="white"/>
<ellipse rx="6.5" ry="7.5" transform="matrix(-1 0 0 1 93.5 656.5)" fill="white"/>
<ellipse rx="8" ry="6.5" transform="matrix(-1 0 0 1 114 767.5)" fill="white"/>
<ellipse rx="8" ry="6.5" transform="matrix(-1 0 0 1 114 767.5)" fill="white"/>
<ellipse rx="8" ry="6.5" transform="matrix(-1 0 0 1 114 767.5)" fill="white"/>
<ellipse rx="14" ry="14.5" transform="matrix(-1 0 0 1 93 703.5)" fill="white"/>
<ellipse rx="14" ry="14.5" transform="matrix(-1 0 0 1 93 703.5)" fill="white"/>
<ellipse rx="14" ry="14.5" transform="matrix(-1 0 0 1 93 703.5)" fill="white"/>
<circle r="10.5" transform="matrix(-1 0 0 1 89.5 745.5)" fill="white"/>
<circle r="10.5" transform="matrix(-1 0 0 1 89.5 745.5)" fill="white"/>
<circle r="10.5" transform="matrix(-1 0 0 1 89.5 745.5)" fill="white"/>
</svg>
