<svg width="245" height="877" viewBox="0 0 245 877" fill="none" xmlns="http://www.w3.org/2000/svg">
<path d="M11.1395 842.872C-6.67846 735.422 55.6843 260.853 89.093 37H172.615C208.25 242.945 235.72 660.058 245 842.872C169.274 875.704 57.5404 856.552 11.1395 842.872Z" fill="#80407D"/>
<path d="M52.789 877C30.4882 820.093 51.4255 601.384 64.8781 497.481C65.0143 496.429 65.6869 495.557 66.7265 495.345C72.6381 494.137 87.6484 495.524 112.256 509.022C136.653 522.404 167.943 509.877 184.76 499.46C187.3 497.886 190.723 499.279 191.15 502.237C203.577 588.293 208.889 786.52 210 877H52.789Z" fill="#BF2F5A"/>
<path fill-rule="evenodd" clip-rule="evenodd" d="M78.5566 23.4541C78.5566 15.1698 85.2724 8.4541 93.5566 8.4541H169.358C177.642 8.4541 184.358 15.1698 184.358 23.4541V23.9527H184.128C181.404 23.9527 179.196 26.1606 179.196 28.8842C179.196 31.6077 181.404 33.8156 184.128 33.8156H184.358V40.8605H184.128C181.404 40.8605 179.196 43.0684 179.196 45.7919C179.196 48.5155 181.404 50.7234 184.128 50.7234H184.358V59.1777H184.128C181.404 59.1777 179.196 61.3855 179.196 64.1091C179.196 66.8326 181.404 69.0405 184.128 69.0405H184.358V83.1299H78.5566V69.0405H78.7865C81.51 69.0405 83.7179 66.8326 83.7179 64.1091C83.7179 61.3855 81.51 59.1776 78.7865 59.1776H78.5566V50.7227H78.7865C81.51 50.7227 83.7179 48.5148 83.7179 45.7913C83.7179 43.0677 81.51 40.8599 78.7865 40.8599H78.5566V33.8149H78.7865C81.51 33.8149 83.7179 31.607 83.7179 28.8835C83.7179 26.16 81.51 23.9521 78.7865 23.9521H78.5566V23.4541Z" fill="#DCA437"/>
<path d="M78.5566 9.99999C78.5566 4.47715 83.0338 0 88.5566 0H174.358C179.881 0 184.358 4.47715 184.358 10V23.9526H78.5566V9.99999Z" fill="#E1C478"/>
<path d="M69.2584 176.351C42.6187 171.32 -0.507402 265.843 92.6289 454.186C128.911 416.037 225.07 180.304 193.279 183.069" stroke="#A46969" stroke-width="10"/>
</svg>
