<svg width="204" height="746" viewBox="0 0 204 746" fill="none" xmlns="http://www.w3.org/2000/svg">
<path d="M54.3668 186.353L70.9927 36H141.653C144.424 80.549 149.966 172.988 149.966 186.353C149.966 199.718 180.447 239.255 195.687 257.353C202.337 260.694 204 272.667 204 278.235V716.765C204 740.153 190.145 746 183.218 746H21.115C1.16394 746 -1.05285 726.51 0.332645 716.765V278.235C0.332645 268.212 5.87461 260.137 8.64559 257.353C31.9218 233.965 48.8248 200.275 54.3668 186.353Z" fill="#5C9A3E"/>
<path d="M7 734V628.639C14.4516 604.693 109.29 647.795 141.129 619.745C165.884 597.935 187.098 604.947 195.319 611.64C195.762 612 196 612.545 196 613.116V734H7Z" fill="#8C2A2A"/>
<path fill-rule="evenodd" clip-rule="evenodd" d="M64.1117 17.2164H64.0399C65.743 10.8027 71.5888 6.07642 78.5386 6.07642H132.942C139.892 6.07642 145.738 10.8027 147.441 17.2164H147.369C145.412 17.2164 143.825 18.8034 143.825 20.761C143.825 22.7187 145.412 24.3056 147.369 24.3056H147.942V29.3695H147.369C145.412 29.3695 143.825 30.9565 143.825 32.9141C143.825 34.8718 145.412 36.4588 147.369 36.4588H147.942V42.5353H147.369C145.412 42.5353 143.825 44.1223 143.825 46.08C143.825 48.0376 145.412 49.6246 147.369 49.6246H147.942V59.7523H63.5386V49.6245H64.1117C66.0694 49.6245 67.6564 48.0375 67.6564 46.0799C67.6564 44.1222 66.0694 42.5352 64.1117 42.5352H63.5386V36.4585H64.1117C66.0694 36.4585 67.6564 34.8715 67.6564 32.9139C67.6564 30.9562 66.0694 29.3692 64.1117 29.3692H63.5386V24.3057H64.1117C66.0694 24.3057 67.6564 22.7187 67.6564 20.7611C67.6564 18.8034 66.0694 17.2164 64.1117 17.2164Z" fill="#A03939"/>
<path d="M63.5386 10C63.5386 4.47716 68.0157 0 73.5386 0H137.942C143.465 0 147.942 4.47715 147.942 10V17.2168H63.5386V10Z" fill="#A95858"/>
<path d="M59 144.5C41.2086 142.719 -6.35918 241.929 118.429 406.631C146.741 363.3 182.13 144.982 148 147.5" stroke="#A46969" stroke-width="10"/>
</svg>
