<svg width="208" height="748" viewBox="0 0 208 748" fill="none" xmlns="http://www.w3.org/2000/svg">
<path d="M69.6661 107.372V16.8521H138.535V107.372C136.622 122.459 141.979 162.816 178.709 203.55C224.622 254.468 201.666 305.385 195.926 322.358C190.187 339.331 184.448 565.631 201.666 639.179C215.439 698.017 203.579 727.813 195.926 735.357C136.24 757.987 48.6224 744.786 12.2747 735.357C4.62251 735.357 -6.09051 716.121 12.2747 639.179C35.2311 543.001 12.2749 361.961 6.53578 322.358C0.796663 282.755 -10.6816 237.495 23.7531 203.55C51.3009 176.394 65.84 128.117 69.6661 107.372Z" fill="#80407D" fill-opacity="0.9"/>
<path d="M27.634 632.862C29.2339 622.103 34.8434 576.586 36.6602 546.61C36.8901 542.816 42.4453 540.833 45.7255 542.753C53.0048 547.013 62.8344 547.76 71.9525 535.042C88.9981 511.266 177.635 505.152 175.59 535.042C173.953 558.953 179.453 610.219 182.408 632.862C189.226 662.073 194.453 702.605 192.635 721.852H182.408H18.7703C9.90657 705.549 24.9067 651.204 27.634 632.862Z" fill="#BF2F5A"/>
<path fill-rule="evenodd" clip-rule="evenodd" d="M68.3431 20.7612C68.3431 18.8934 66.8984 17.363 65.0654 17.2265C66.7651 10.8077 72.6134 6.07642 79.5668 6.07642H126.973C133.927 6.07642 139.775 10.8076 141.475 17.2263C139.642 17.3628 138.197 18.8932 138.197 20.761C138.197 22.7187 139.784 24.3056 141.742 24.3056H141.973V29.3695H141.742C139.784 29.3695 138.197 30.9565 138.197 32.9141C138.197 34.8718 139.784 36.4588 141.742 36.4588H141.973V42.5355H141.742C139.784 42.5355 138.197 44.1225 138.197 46.0801C138.197 48.0378 139.784 49.6248 141.742 49.6248H141.973V59.7523H64.5668V49.6247H64.7984C66.7561 49.6247 68.3431 48.0377 68.3431 46.08C68.3431 44.1224 66.7561 42.5354 64.7984 42.5354H64.5668V36.4587H64.7984C66.7561 36.4587 68.3431 34.8717 68.3431 32.914C68.3431 30.9564 66.7561 29.3694 64.7984 29.3694H64.5668V24.3059H64.7984C66.7561 24.3059 68.3431 22.7189 68.3431 20.7612Z" fill="#DCA437"/>
<path d="M64.5668 10C64.5668 4.47716 69.0439 0 74.5668 0H131.973C137.496 0 141.973 4.47715 141.973 10V17.2168H64.5668V10Z" fill="#E1C478"/>
<path d="M68.4999 77.8521C81.3332 80.5187 113.3 84.2521 138.5 77.8521C139 78.3521 139.7 80.1521 138.5 83.3521C139.3 85.7521 138.833 88.6854 138.5 89.8521C139 90.8521 139.7 93.3521 138.5 95.3521C137 97.8521 101.5 100.352 96.9999 98.3521C91.3332 98.5187 77.8999 98.1521 69.4999 95.3521C68.8332 94.1854 67.8999 91.1521 69.4999 88.3521C68.2999 85.9521 68.9999 84.0187 69.4999 83.3521C68.8332 82.6854 67.6999 80.6521 68.4999 77.8521Z" fill="#A46969"/>
<path d="M108 93.3521C134.833 107.852 186.1 142.752 176.5 166.352C164.5 195.852 131.5 179.352 152 253.852" stroke="#A46969" stroke-width="10"/>
</svg>
