<svg width="204" height="748" viewBox="0 0 204 748" fill="none" xmlns="http://www.w3.org/2000/svg">
<path d="M54.3668 188.353L70.9927 38H141.653C144.424 82.549 149.966 174.988 149.966 188.353C149.966 201.718 180.447 241.255 195.687 259.353C202.337 262.694 204 274.667 204 280.235V718.765C204 742.153 190.145 748 183.218 748H21.115C1.16394 748 -1.05285 728.51 0.332645 718.765V280.235C0.332645 270.212 5.87461 262.137 8.64559 259.353C31.9218 235.965 48.8248 202.275 54.3668 188.353Z" fill="#C04C3A"/>
<path d="M14 736V485.47C14 485.174 14.0625 484.887 14.1914 484.621C22.9402 466.526 46.8777 441.836 74.3333 485.02C100.14 525.61 157.854 506.236 188.778 488.736C191.52 487.185 195 489.128 195 492.278V736H14Z" fill="#2F398D"/>
<path fill-rule="evenodd" clip-rule="evenodd" d="M68.8961 20.9094C68.8961 18.9533 67.3116 17.3673 65.356 17.3648C67.0591 10.951 72.9049 6.22461 79.8547 6.22461H132.693C139.643 6.22461 145.489 10.9509 147.192 17.3646C145.236 17.3671 143.652 18.9531 143.652 20.9092C143.652 22.8669 145.239 24.4538 147.196 24.4538H147.693V29.5177H147.196C145.239 29.5177 143.652 31.1047 143.652 33.0623C143.652 35.02 145.239 36.607 147.196 36.607H147.693V42.6837H147.196C145.239 42.6837 143.652 44.2707 143.652 46.2283C143.652 48.186 145.239 49.773 147.196 49.773H147.693V59.9004H64.8547V49.7729H65.3515C67.3091 49.7729 68.8961 48.1859 68.8961 46.2282C68.8961 44.2706 67.3091 42.6836 65.3515 42.6836H64.8547V36.6069H65.3515C67.3091 36.6069 68.8961 35.0199 68.8961 33.0622C68.8961 31.1046 67.3091 29.5176 65.3515 29.5176H64.8547V24.4541H65.3515C67.3091 24.4541 68.8961 22.8671 68.8961 20.9094Z" fill="#544DA7"/>
<path d="M64.8547 10.148C64.8547 4.62511 69.3319 0.147949 74.8547 0.147949H137.693C143.216 0.147949 147.693 4.6251 147.693 10.1479V17.3647H64.8547V10.148Z" fill="#6D6CA5"/>
</svg>
