<svg width="334" height="840" viewBox="0 0 334 840" fill="none" xmlns="http://www.w3.org/2000/svg">
<path d="M115.209 378.81L144.004 36H201.596L222.164 378.81C322.538 421.507 338.033 499.238 333.233 532.767L304.438 803.73C190.9 869.418 72.0149 831.1 26.7645 803.73C18.5372 745.569 1.67118 609.95 0.0257102 532.767C-1.61976 455.583 76.1287 397.969 115.209 378.81Z" fill="#EABE56"/>
<path d="M291.393 802H39.5667L16.3914 572.105C16.2279 570.483 17.9569 569.327 19.4094 570.066C46.3002 583.751 111.032 598.253 181.64 558.146C253.638 517.249 301.581 539.527 317.841 556.857C318.603 557.669 318.929 558.775 318.803 559.881L291.393 802Z" fill="#358FA2"/>
<path d="M126.501 6.72888H213.977V177.064C213.977 182.587 209.5 187.064 203.977 187.064H136.501C130.978 187.064 126.501 182.587 126.501 177.064V6.72888Z" fill="#3D3C76"/>
<ellipse cx="170.239" cy="8.07472" rx="43.7381" ry="8.07472" fill="#5B6DAF"/>
<path fill-rule="evenodd" clip-rule="evenodd" d="M212.631 68.2728C210.443 69.085 207.211 69.8532 203.105 70.5135C194.739 71.859 183.107 72.7006 170.209 72.7006C157.311 72.7006 145.679 71.859 137.313 70.5135C133.244 69.8592 130.034 69.099 127.846 68.295V70.414C135.423 72.95 151.545 74.7006 170.209 74.7006C188.923 74.7006 205.08 72.9407 212.631 70.3939V68.2728Z" fill="#D8CB8D"/>
<path d="M212.631 68.2728H213.131V67.554L212.457 67.8041L212.631 68.2728ZM203.105 70.5135L203.026 70.0199L203.105 70.5135ZM137.313 70.5135L137.233 71.0072L137.313 70.5135ZM127.846 68.295L128.019 67.8257L127.346 67.5785V68.295H127.846ZM127.846 70.414H127.346V70.7739L127.688 70.8881L127.846 70.414ZM212.631 70.3939L212.791 70.8676L213.131 70.7529V70.3939H212.631ZM212.457 67.8041C210.313 68.5997 207.119 69.3616 203.026 70.0199L203.184 71.0072C207.303 70.3448 210.572 69.5704 212.805 68.7416L212.457 67.8041ZM203.026 70.0199C194.693 71.3599 183.089 72.2006 170.209 72.2006V73.2006C183.125 73.2006 194.785 72.358 203.184 71.0072L203.026 70.0199ZM170.209 72.2006C157.329 72.2006 145.725 71.3599 137.392 70.0199L137.233 71.0072C145.633 72.358 157.292 73.2006 170.209 73.2006V72.2006ZM137.392 70.0199C133.336 69.3676 130.162 68.6135 128.019 67.8257L127.674 68.7643C129.905 69.5844 133.151 70.3508 137.233 71.0072L137.392 70.0199ZM127.346 68.295V70.414H128.346V68.295H127.346ZM127.688 70.8881C135.346 73.4515 151.537 75.2006 170.209 75.2006V74.2006C151.552 74.2006 135.5 72.4484 128.005 69.9398L127.688 70.8881ZM170.209 75.2006C188.929 75.2006 205.157 73.4423 212.791 70.8676L212.471 69.9201C205.003 72.439 188.916 74.2006 170.209 74.2006V75.2006ZM213.131 70.3939V68.2728H212.131V70.3939H213.131Z" fill="#D9CC89"/>
<path fill-rule="evenodd" clip-rule="evenodd" d="M212.631 80.141C210.443 80.9532 207.211 81.7213 203.105 82.3816C194.739 83.7271 183.107 84.5687 170.209 84.5687C157.311 84.5687 145.679 83.7271 137.313 82.3816C133.244 81.7273 130.034 80.967 127.846 80.163V82.282C135.423 84.818 151.545 86.5687 170.209 86.5687C188.923 86.5687 205.08 84.8088 212.631 82.262V80.141Z" fill="#D8CB8D"/>
<path d="M212.631 80.141H213.131V79.4221L212.457 79.6722L212.631 80.141ZM203.105 82.3816L203.185 82.8753L203.105 82.3816ZM137.313 82.3816L137.233 82.8753L137.313 82.3816ZM127.846 80.163L128.019 79.6937L127.346 79.4465V80.163H127.846ZM127.846 82.282H127.346V82.6419L127.688 82.7562L127.846 82.282ZM212.631 82.262L212.791 82.7358L213.131 82.621V82.262H212.631ZM212.457 79.6722C210.313 80.4678 207.119 81.2297 203.026 81.888L203.185 82.8753C207.304 82.2129 210.572 81.4385 212.805 80.6098L212.457 79.6722ZM203.026 81.888C194.693 83.228 183.089 84.0687 170.209 84.0687V85.0687C183.126 85.0687 194.785 84.2261 203.185 82.8753L203.026 81.888ZM170.209 84.0687C157.329 84.0687 145.725 83.228 137.392 81.888L137.233 82.8753C145.633 84.2261 157.293 85.0687 170.209 85.0687V84.0687ZM137.392 81.888C133.336 81.2357 130.162 80.4816 128.019 79.6937L127.674 80.6323C129.905 81.4524 133.152 82.2188 137.233 82.8753L137.392 81.888ZM127.346 80.163V82.282H128.346V80.163H127.346ZM127.688 82.7562C135.346 85.3196 151.537 87.0687 170.209 87.0687V86.0687C151.552 86.0687 135.499 84.3165 128.005 81.8079L127.688 82.7562ZM170.209 87.0687C188.93 87.0687 205.157 85.3105 212.791 82.7358L212.471 81.7882C205.003 84.3072 188.916 86.0687 170.209 86.0687V87.0687ZM213.131 82.262V80.141H212.131V82.262H213.131Z" fill="#D9CC89"/>
<path fill-rule="evenodd" clip-rule="evenodd" d="M212.631 159.542C210.443 160.355 207.211 161.123 203.105 161.783C194.739 163.128 183.107 163.97 170.209 163.97C157.311 163.97 145.679 163.128 137.313 161.783C133.244 161.129 130.034 160.368 127.846 159.564V161.683C135.423 164.219 151.545 165.97 170.209 165.97C188.923 165.97 205.08 164.21 212.631 161.663V159.542Z" fill="#D8CB8D"/>
<path d="M212.631 159.542H213.131V158.823L212.457 159.074L212.631 159.542ZM203.105 161.783L203.185 162.277L203.105 161.783ZM137.313 161.783L137.233 162.277L137.313 161.783ZM127.846 159.564L128.019 159.095L127.346 158.848V159.564H127.846ZM127.846 161.683H127.346V162.043L127.688 162.158L127.846 161.683ZM212.631 161.663L212.791 162.137L213.131 162.022V161.663H212.631ZM212.457 159.074C210.313 159.869 207.119 160.631 203.026 161.289L203.185 162.277C207.304 161.614 210.572 160.84 212.805 160.011L212.457 159.074ZM203.026 161.289C194.693 162.629 183.089 163.47 170.209 163.47V164.47C183.126 164.47 194.785 163.627 203.185 162.277L203.026 161.289ZM170.209 163.47C157.329 163.47 145.725 162.629 137.392 161.289L137.233 162.277C145.633 163.627 157.293 164.47 170.209 164.47V163.47ZM137.392 161.289C133.336 160.637 130.162 159.883 128.019 159.095L127.674 160.034C129.905 160.854 133.152 161.62 137.233 162.277L137.392 161.289ZM127.346 159.564V161.683H128.346V159.564H127.346ZM127.688 162.158C135.346 164.721 151.537 166.47 170.209 166.47V165.47C151.552 165.47 135.499 163.718 128.005 161.209L127.688 162.158ZM170.209 166.47C188.93 166.47 205.157 164.712 212.791 162.137L212.471 161.19C205.003 163.709 188.916 165.47 170.209 165.47V166.47ZM213.131 161.663V159.542H212.131V161.663H213.131Z" fill="#D9CC89"/>
<path fill-rule="evenodd" clip-rule="evenodd" d="M212.631 171.655C210.443 172.467 207.211 173.235 203.105 173.895C194.739 175.241 183.107 176.083 170.209 176.083C157.311 176.083 145.679 175.241 137.313 173.895C133.244 173.241 130.034 172.481 127.846 171.677V173.796C135.423 176.332 151.545 178.083 170.209 178.083C188.923 178.083 205.08 176.323 212.631 173.776V171.655Z" fill="#D8CB8D"/>
<path d="M212.631 171.655H213.131V170.936L212.457 171.186L212.631 171.655ZM203.105 173.895L203.026 173.402L203.105 173.895ZM137.313 173.895L137.233 174.389L137.313 173.895ZM127.846 171.677L128.019 171.208L127.346 170.96V171.677H127.846ZM127.846 173.796H127.346V174.156L127.688 174.27L127.846 173.796ZM212.631 173.776L212.791 174.25L213.131 174.135V173.776H212.631ZM212.457 171.186C210.313 171.982 207.119 172.744 203.026 173.402L203.184 174.389C207.303 173.727 210.572 172.952 212.805 172.124L212.457 171.186ZM203.026 173.402C194.693 174.742 183.089 175.583 170.209 175.583V176.583C183.125 176.583 194.785 175.74 203.184 174.389L203.026 173.402ZM170.209 175.583C157.329 175.583 145.725 174.742 137.392 173.402L137.233 174.389C145.633 175.74 157.292 176.583 170.209 176.583V175.583ZM137.392 173.402C133.336 172.75 130.162 171.995 128.019 171.208L127.674 172.146C129.905 172.966 133.151 173.733 137.233 174.389L137.392 173.402ZM127.346 171.677V173.796H128.346V171.677H127.346ZM127.688 174.27C135.346 176.833 151.537 178.583 170.209 178.583V177.583C151.552 177.583 135.5 175.83 128.005 173.322L127.688 174.27ZM170.209 178.583C188.929 178.583 205.157 176.824 212.791 174.25L212.471 173.302C205.003 175.821 188.916 177.583 170.209 177.583V178.583ZM213.131 173.776V171.655H212.131V173.776H213.131Z" fill="#D9CC89"/>
<path d="M175 235C151.51 249.545 106.63 284.554 115.034 308.227C125.539 337.819 154.428 321.268 136.482 396" stroke="#A46969" stroke-width="10"/>
<path d="M125.349 216C141.631 219.392 182.188 224.141 214.159 216C214.794 216.636 215.682 218.926 214.159 222.996C215.174 226.049 214.582 229.78 214.159 231.264C214.794 232.536 215.682 235.716 214.159 238.26C212.256 241.44 167.217 244.62 161.508 242.076C154.318 242.288 137.275 241.821 126.618 238.26C125.772 236.776 124.588 232.917 126.618 229.356C125.095 226.303 125.983 223.844 126.618 222.996C125.772 222.148 124.334 219.562 125.349 216Z" fill="#A46969"/>
</svg>
