<svg width="217" height="790" viewBox="0 0 217 790" fill="none" xmlns="http://www.w3.org/2000/svg">
<path d="M2.87454 773.456C-13.4398 675.395 43.6603 242.293 74.2497 38H150.723C183.352 225.95 208.503 606.616 217 773.456C147.664 803.419 45.3598 785.94 2.87454 773.456Z" fill="#80407D"/>
<path d="M33.789 780C11.5326 724.544 32.3423 511.728 45.7977 410.03C45.9842 408.62 46.9025 407.453 48.308 407.233C54.5866 406.254 69.4182 407.924 93.2558 420.691C117.678 433.772 149.009 421.5 165.812 411.323C168.346 409.788 171.723 411.178 172.156 414.109C184.579 498.159 189.89 691.667 191 780H33.789Z" fill="#BF2F5A"/>
<path fill-rule="evenodd" clip-rule="evenodd" d="M67.1281 21.1799H67.0344C67.7211 13.5324 74.1474 7.53882 81.9736 7.53882H144.108C151.934 7.53882 158.36 13.5324 159.047 21.1798H158.953C156.556 21.1798 154.613 23.1231 154.613 25.5201C154.613 27.9172 156.556 29.8605 158.953 29.8605H159.108V36.061H158.953C156.556 36.061 154.613 38.0043 154.613 40.4013C154.613 42.7984 156.556 44.7416 158.953 44.7416H159.108V52.1824H158.953C156.556 52.1824 154.613 54.1256 154.613 56.5227C154.613 58.9198 156.556 60.863 158.953 60.863H159.108V73.2635H66.9736V60.8627H67.1281C69.5252 60.8627 71.4684 58.9195 71.4684 56.5224C71.4684 54.1253 69.5252 52.1821 67.1281 52.1821H66.9736V44.7414H67.1281C69.5252 44.7414 71.4684 42.7982 71.4684 40.4011C71.4684 38.004 69.5252 36.0608 67.1281 36.0608H66.9736V29.8605H67.1281C69.5252 29.8605 71.4684 27.9173 71.4684 25.5202C71.4684 23.1231 69.5252 21.1799 67.1281 21.1799Z" fill="#5C9A3E"/>
<path d="M66.9736 10.0982C66.9736 4.5753 71.4508 0.0981445 76.9736 0.0981445H149.108C154.63 0.0981445 159.108 4.5753 159.108 10.0981V21.1796H66.9736V10.0982Z" fill="#85BB7C"/>
<path d="M57.4999 154C31.4999 150.5 7.56433 254.254 128.373 421.067C157.204 378.263 201 160 168.5 163.5" stroke="#A46969" stroke-width="10"/>
</svg>
