<svg width="317" height="842" viewBox="0 0 317 842" fill="none" xmlns="http://www.w3.org/2000/svg">
<path d="M146.273 134.922V39H223.722V134.922C336.375 164.868 353.586 270.616 348.109 319.747V801.696C231.701 874.69 69.6065 832.11 3.11007 801.696C0.763139 694.076 -2.52257 447.019 3.11007 319.747C8.74272 192.475 100.899 143.5 146.273 134.922Z" fill="#5C9A3E"/>
<path d="M20.34 806.925L14.9922 603.155C14.9664 602.17 15.3373 601.16 16.0037 600.435C57.8662 554.852 136.313 682.054 179.27 579.699C213.926 497.123 293.991 498.228 329.692 509.103L319.885 816.481L20.34 806.925Z" fill="#8C2A2A"/>
<path fill-rule="evenodd" clip-rule="evenodd" d="M140.86 20.2449H140.785C141.719 12.8578 148.025 7.14526 155.666 7.14526H215.09C222.73 7.14526 229.036 12.8578 229.97 20.2448H229.895C227.593 20.2448 225.727 22.1109 225.727 24.4128C225.727 26.7148 227.593 28.5809 229.895 28.5809H230.09V34.5354H229.895C227.593 34.5354 225.727 36.4015 225.727 38.7035C225.727 41.0054 227.593 42.8716 229.895 42.8716H230.09V50.0171H229.895C227.593 50.0171 225.727 51.8832 225.727 54.1851C225.727 56.4871 227.593 58.3532 229.895 58.3532H230.09V70.2618H140.666V58.353H140.86C143.162 58.353 145.028 56.4869 145.028 54.1849C145.028 51.8829 143.162 50.0168 140.86 50.0168H140.666V42.8713H140.86C143.162 42.8713 145.028 41.0052 145.028 38.7033C145.028 36.4013 143.162 34.5352 140.86 34.5352H140.666V28.581H140.86C143.162 28.581 145.028 26.7149 145.028 24.4129C145.028 22.111 143.162 20.2449 140.86 20.2449Z" fill="#DCA437"/>
<path d="M140.666 10C140.666 4.47715 145.143 0 150.666 0H220.09C225.612 0 230.09 4.47715 230.09 10V20.2449H140.666V10Z" fill="#E1C478"/>
</svg>
