<svg width="278" height="808" viewBox="0 0 278 808" fill="none" xmlns="http://www.w3.org/2000/svg">
<path d="M63.139 355.414L91.4175 19H147.974L168.173 355.414C266.744 397.315 281.96 473.596 277.247 506.499L248.969 772.407C137.471 836.869 20.7213 799.266 -23.7163 772.407C-31.7958 715.331 -48.3588 582.242 -49.9748 506.499C-51.5907 430.755 24.7611 374.216 63.139 355.414Z" fill="#E2A745"/>
<path d="M235.031 774H-10.9778L-34 543.724C-10.1007 557.62 55.7209 575.09 127.813 533.799C199.906 492.508 247.31 516.594 262 533.799L235.031 774Z" fill="#8C2A2A"/>
<path fill-rule="evenodd" clip-rule="evenodd" d="M87.6677 20.2188C87.6677 18.4953 86.4046 17.0668 84.7535 16.8085C86.5403 10.5221 92.3243 5.91797 99.1836 5.91797H140.6C147.459 5.91797 153.243 10.5223 155.03 16.8089C153.379 17.0671 152.116 18.4957 152.116 20.2193C152.116 22.1258 153.661 23.6713 155.568 23.6713H155.6V28.6028H155.568C153.661 28.6028 152.116 30.1483 152.116 32.0548C152.116 33.9613 153.661 35.5068 155.568 35.5068H155.6V41.4245H155.568C153.661 41.4245 152.116 42.97 152.116 44.8765C152.116 46.783 153.661 48.3285 155.568 48.3285H155.6V58.1913H84.1836V48.3287H84.2157C86.1222 48.3287 87.6677 46.7831 87.6677 44.8766C87.6677 42.9701 86.1222 41.4246 84.2157 41.4246H84.1836V35.5064H84.2157C86.1222 35.5064 87.6677 33.9609 87.6677 32.0544C87.6677 30.1479 86.1222 28.6024 84.2157 28.6024H84.1836V23.6708H84.2157C86.1222 23.6708 87.6677 22.1253 87.6677 20.2188Z" fill="#A03939"/>
<path d="M84.1836 10C84.1836 4.47715 88.6607 0 94.1836 0H145.6C151.123 0 155.6 4.47715 155.6 10V16.7669H84.1836V10Z" fill="#C56767"/>
</svg>
