<svg width="203" height="719" viewBox="0 0 203 719" fill="none" xmlns="http://www.w3.org/2000/svg">
<path d="M67.9915 94.2913V6H135.205V94.2913C133.338 109.007 138.566 148.37 174.413 188.101C219.223 237.765 196.818 287.429 191.217 303.983C185.616 320.538 180.015 541.266 196.818 613.003C210.261 670.392 198.685 699.455 191.217 706.812C132.965 728.885 47.4537 716.01 11.9797 706.812C4.51151 706.812 -5.94398 688.051 11.9797 613.003C34.3844 519.193 11.98 342.611 6.37879 303.983C0.777631 265.356 -10.4247 221.21 23.1823 188.101C50.0678 161.613 64.2574 114.525 67.9915 94.2913Z" fill="#3C459D"/>
<path d="M28.3767 621.59C29.9569 611.187 35.3421 567.287 37.1205 538.175C37.3523 534.381 42.9271 532.388 46.2344 534.261C53.2706 538.246 62.6722 538.784 71.4021 526.604C87.9504 503.518 174.001 497.581 172.015 526.604C170.427 549.823 177.727 599.602 180.595 621.59C186.553 650.138 190.329 689.311 188.564 708H178.635H19.7716C11.1665 692.169 25.0421 643.542 28.3767 621.59Z" fill="#358FA2"/>
<path fill-rule="evenodd" clip-rule="evenodd" d="M66.5243 22.2726C66.5243 20.3211 65.013 18.7227 63.097 18.5838C64.625 11.9204 70.5909 6.9502 77.7178 6.9502H125.747C132.874 6.9502 138.84 11.9208 140.368 18.5845C138.452 18.7232 136.94 20.3217 136.94 22.2733C136.94 24.3159 138.596 25.9719 140.639 25.9719H140.747V31.2556H140.639C138.596 31.2556 136.94 32.9115 136.94 34.9541C136.94 36.9968 138.596 38.6527 140.639 38.6527H140.747V44.9929H140.639C138.596 44.9929 136.94 46.6488 136.94 48.6915C136.94 50.7341 138.596 52.3901 140.639 52.3901H140.747V62.9574H62.7178V52.39H62.8257C64.8684 52.39 66.5243 50.7341 66.5243 48.6914C66.5243 46.6487 64.8684 44.9928 62.8257 44.9928H62.7178V38.652H62.8257C64.8684 38.652 66.5243 36.9961 66.5243 34.9534C66.5243 32.9107 64.8684 31.2548 62.8257 31.2548H62.7178V25.9711H62.8257C64.8684 25.9711 66.5243 24.3152 66.5243 22.2726Z" fill="#DCA437"/>
<path d="M62.7178 10.6094C62.7178 5.08653 67.1949 0.609375 72.7178 0.609375H130.747C136.27 0.609375 140.747 5.08653 140.747 10.6094V18.5739H62.7178V10.6094Z" fill="#E1C478"/>
<path d="M68.0004 84.5005C44 84.5008 2.759 211.527 119.625 375.111C148.037 333.514 167.5 84.5002 135 84.5" stroke="#A46969" stroke-width="10"/>
</svg>
