<svg width="198" height="807" viewBox="0 0 198 807" fill="none" xmlns="http://www.w3.org/2000/svg">
<path d="M52.7678 261.541L68.9047 115H137.487C140.176 158.42 145.555 248.515 145.555 261.541C145.555 274.567 175.139 313.102 189.932 330.741C196.386 333.998 198 345.667 198 351.094V778.506C198 801.301 184.553 807 177.829 807H20.494C1.1297 807 -1.02188 788.004 0.322861 778.506V351.094C0.322861 341.325 5.70183 333.455 8.39131 330.741C30.983 307.946 47.3888 275.11 52.7678 261.541Z" fill="#5C9A3E"/>
<path d="M11 791V712.26C11 711.275 11.4712 710.349 12.3136 709.837C21.6679 704.157 44.2519 697.434 70 710.687C95.2552 723.685 151.76 717.466 181.984 711.863C185.099 711.285 188 713.657 188 716.826V791H11Z" fill="#BF2F5A"/>
<path d="M59.2168 6.46973H143.326V169.863C143.326 175.386 138.848 179.863 133.326 179.863H69.2168C63.6939 179.863 59.2168 175.386 59.2168 169.863V6.46973Z" fill="#0E5A72"/>
<ellipse cx="101.271" cy="7.76389" rx="42.0544" ry="7.76389" fill="#669FBF"/>
<path fill-rule="evenodd" clip-rule="evenodd" d="M142.032 65.5635C139.934 66.3454 136.823 67.0866 132.86 67.7239C124.821 69.0167 113.642 69.8258 101.243 69.8258C88.8437 69.8258 77.6642 69.0167 69.6252 67.7239C65.6981 67.0923 62.6076 66.3587 60.5107 65.5845V67.7041C67.7953 70.1425 83.2966 71.8258 101.243 71.8258C119.236 71.8258 134.771 70.1337 142.032 67.685V65.5635Z" fill="#D8CB8D"/>
<path d="M142.032 65.5635H142.532V64.8435L141.857 65.095L142.032 65.5635ZM132.86 67.7239L132.94 68.2175L132.86 67.7239ZM69.6252 67.7239L69.5458 68.2175L69.6252 67.7239ZM60.5107 65.5845L60.6839 65.1155L60.0107 64.8669V65.5845H60.5107ZM60.5107 67.7041H60.0107V68.064L60.352 68.1782L60.5107 67.7041ZM142.032 67.685L142.191 68.1588L142.532 68.044V67.685H142.032ZM141.857 65.095C139.804 65.8601 136.731 66.595 132.781 67.2302L132.94 68.2175C136.915 67.5782 140.064 66.8307 142.206 66.032L141.857 65.095ZM132.781 67.2302C124.775 68.5177 113.624 69.3258 101.243 69.3258V70.3258C113.66 70.3258 124.867 69.5157 132.94 68.2175L132.781 67.2302ZM101.243 69.3258C88.8619 69.3258 77.7101 68.5177 69.7045 67.2302L69.5458 68.2175C77.6183 69.5157 88.8256 70.3258 101.243 70.3258V69.3258ZM69.7045 67.2302C65.7905 66.6007 62.7365 65.8733 60.6839 65.1155L60.3376 66.0536C62.4787 66.8441 65.6057 67.5839 69.5458 68.2175L69.7045 67.2302ZM60.0107 65.5845V67.7041H61.0107V65.5845H60.0107ZM60.352 68.1782C67.7185 70.644 83.2894 72.3258 101.243 72.3258V71.3258C83.3039 71.3258 67.872 69.6409 60.6695 67.2299L60.352 68.1782ZM101.243 72.3258C119.243 72.3258 134.848 70.6353 142.191 68.1588L141.872 67.2112C134.694 69.632 119.229 71.3258 101.243 71.3258V72.3258ZM142.532 67.685V65.5635H141.532V67.685H142.532Z" fill="#D9CC89"/>
<path fill-rule="evenodd" clip-rule="evenodd" d="M142.031 76.9746C139.934 77.7565 136.823 78.4977 132.86 79.135C124.821 80.4278 113.642 81.2369 101.242 81.2369C88.8434 81.2369 77.6639 80.4278 69.6248 79.135C65.6979 78.5035 62.6076 77.7699 60.5107 76.9958V79.1153C67.7954 81.5536 83.2966 83.2369 101.242 83.2369C119.235 83.2369 134.771 81.5448 142.031 79.0961V76.9746Z" fill="#D8CB8D"/>
<path d="M142.031 76.9746H142.531V76.2546L141.857 76.5061L142.031 76.9746ZM132.86 79.135L132.939 79.6286L132.86 79.135ZM69.6248 79.135L69.5454 79.6286L69.6248 79.135ZM60.5107 76.9958L60.6839 76.5267L60.0107 76.2782V76.9958H60.5107ZM60.5107 79.1153H60.0107V79.4752L60.352 79.5894L60.5107 79.1153ZM142.031 79.0961L142.191 79.5699L142.531 79.4552V79.0961H142.031ZM141.857 76.5061C139.804 77.2712 136.73 78.0061 132.781 78.6413L132.939 79.6286C136.915 78.9893 140.063 78.2419 142.206 77.4431L141.857 76.5061ZM132.781 78.6413C124.775 79.9288 113.623 80.7369 101.242 80.7369V81.7369C113.66 81.7369 124.867 80.9268 132.939 79.6286L132.781 78.6413ZM101.242 80.7369C88.8615 80.7369 77.7098 79.9288 69.7042 78.6413L69.5454 79.6286C77.6179 80.9268 88.8253 81.7369 101.242 81.7369V80.7369ZM69.7042 78.6413C65.7903 78.0119 62.7365 77.2845 60.6839 76.5267L60.3376 77.4648C62.4787 78.2553 65.6055 78.995 69.5454 79.6286L69.7042 78.6413ZM60.0107 76.9958V79.1153H61.0107V76.9958H60.0107ZM60.352 79.5894C67.7186 82.0552 83.2893 83.7369 101.242 83.7369V82.7369C83.3038 82.7369 67.8722 81.0521 60.6694 78.6411L60.352 79.5894ZM101.242 83.7369C119.242 83.7369 134.848 82.0465 142.191 79.5699L141.871 78.6223C134.693 81.0432 119.228 82.7369 101.242 82.7369V83.7369ZM142.531 79.0961V76.9746H141.531V79.0961H142.531Z" fill="#D9CC89"/>
<path fill-rule="evenodd" clip-rule="evenodd" d="M142.031 153.319C139.934 154.101 136.823 154.842 132.86 155.48C124.821 156.772 113.642 157.582 101.243 157.582C88.8438 157.582 77.6642 156.772 69.6252 155.48C65.6981 154.848 62.6076 154.114 60.5107 153.34V155.46C67.7952 157.898 83.2967 159.582 101.243 159.582C119.235 159.582 134.77 157.889 142.031 155.441V153.319Z" fill="#D8CB8D"/>
<path d="M142.031 153.319H142.531V152.599L141.857 152.851L142.031 153.319ZM132.86 155.48L132.94 155.973L132.86 155.48ZM69.6252 155.48L69.5458 155.973L69.6252 155.48ZM60.5107 153.34L60.6839 152.871L60.0107 152.623V153.34H60.5107ZM60.5107 155.46H60.0107V155.82L60.352 155.934L60.5107 155.46ZM142.031 155.441L142.191 155.915L142.531 155.8V155.441H142.031ZM141.857 152.851C139.804 153.616 136.731 154.351 132.781 154.986L132.94 155.973C136.915 155.334 140.063 154.587 142.206 153.788L141.857 152.851ZM132.781 154.986C124.776 156.273 113.624 157.082 101.243 157.082V158.082C113.66 158.082 124.867 157.271 132.94 155.973L132.781 154.986ZM101.243 157.082C88.8619 157.082 77.7101 156.273 69.7046 154.986L69.5458 155.973C77.6183 157.271 88.8257 158.082 101.243 158.082V157.082ZM69.7046 154.986C65.7905 154.356 62.7365 153.629 60.6839 152.871L60.3376 153.809C62.4787 154.6 65.6057 155.34 69.5458 155.973L69.7046 154.986ZM60.0107 153.34V155.46H61.0107V153.34H60.0107ZM60.352 155.934C67.7185 158.4 83.2894 160.082 101.243 160.082V159.082C83.3039 159.082 67.872 157.397 60.6695 154.986L60.352 155.934ZM101.243 160.082C119.242 160.082 134.848 158.391 142.191 155.915L141.871 154.967C134.693 157.388 119.228 159.082 101.243 159.082V160.082ZM142.531 155.441V153.319H141.531V155.441H142.531Z" fill="#D9CC89"/>
<path fill-rule="evenodd" clip-rule="evenodd" d="M142.031 164.966C139.934 165.748 136.823 166.489 132.86 167.126C124.821 168.419 113.642 169.228 101.242 169.228C88.8434 169.228 77.6639 168.419 69.6248 167.126C65.6979 166.495 62.6076 165.761 60.5107 164.987V167.106C67.7954 169.545 83.2966 171.228 101.242 171.228C119.235 171.228 134.771 169.536 142.031 167.087V164.966Z" fill="#D8CB8D"/>
<path d="M142.031 164.966H142.531V164.246L141.857 164.497L142.031 164.966ZM132.86 167.126L132.939 167.62L132.86 167.126ZM69.6248 167.126L69.7042 166.633L69.6248 167.126ZM60.5107 164.987L60.6839 164.518L60.0107 164.269V164.987H60.5107ZM60.5107 167.106H60.0107V167.466L60.352 167.581L60.5107 167.106ZM142.031 167.087L142.191 167.561L142.531 167.446V167.087H142.031ZM141.857 164.497C139.804 165.262 136.73 165.997 132.781 166.633L132.939 167.62C136.915 166.98 140.063 166.233 142.206 165.434L141.857 164.497ZM132.781 166.633C124.775 167.92 113.623 168.728 101.242 168.728V169.728C113.66 169.728 124.867 168.918 132.939 167.62L132.781 166.633ZM101.242 168.728C88.8615 168.728 77.7098 167.92 69.7042 166.633L69.5454 167.62C77.6179 168.918 88.8253 169.728 101.242 169.728V168.728ZM69.7042 166.633C65.7903 166.003 62.7365 165.276 60.6839 164.518L60.3376 165.456C62.4787 166.247 65.6055 166.986 69.5454 167.62L69.7042 166.633ZM60.0107 164.987V167.106H61.0107V164.987H60.0107ZM60.352 167.581C67.7186 170.046 83.2893 171.728 101.242 171.728V170.728C83.3038 170.728 67.8722 169.043 60.6694 166.632L60.352 167.581ZM101.242 171.728C119.242 171.728 134.848 170.038 142.191 167.561L141.871 166.614C134.693 169.034 119.228 170.728 101.242 170.728V171.728ZM142.531 167.087V164.966H141.531V167.087H142.531Z" fill="#D9CC89"/>
<path d="M58.8791 205.03C41.6775 203.043 -3.44352 299.341 115.115 462C143.123 420.055 176.259 206.987 143.179 208.974" stroke="#A46969" stroke-width="10"/>
</svg>
