<svg width="322" height="690" viewBox="0 0 322 690" fill="none" xmlns="http://www.w3.org/2000/svg">
<path d="M158.224 385.127L0.266602 242.753C136.832 203.653 271.084 226.461 321.139 242.753L187.265 385.127V673.416H158.224V385.127Z" fill="#BBD6D8"/>
<ellipse cx="170.974" cy="674.124" rx="114.749" ry="15.5832" fill="#BBD6D8"/>
<path fill-rule="evenodd" clip-rule="evenodd" d="M30.675 13.4754L37.4154 0.0117188L110.75 49.0039H110.843V294.743H97.3789V58.0379L30.675 13.4754Z" fill="#5AA04E"/>
<path d="M169.302 373L49.8161 268.363C46.6638 265.602 48.1218 260.611 52.3026 260.33C71.5925 259.037 105.133 261.012 138.86 275.881C171.312 290.187 222.122 280.535 256.739 269.786C261.946 268.168 266.431 275.183 262.589 279.053L169.302 373Z" fill="#ECD612"/>
</svg>
