<svg width="201" height="428" viewBox="0 0 201 428" fill="none" xmlns="http://www.w3.org/2000/svg">
<path d="M16.5773 414.273L0 12.3543C78.7423 -10.0205 166.809 3.03146 201 12.3543L178.206 414.273C115.212 439.134 44.2062 424.632 16.5773 414.273Z" fill="#BBD6D8"/>
<path d="M30.9072 409L18 77.3074C27.5105 77.3074 30.9072 98.378 61.4768 77.3074C85.9325 60.4508 150.015 70.2838 179 77.3074L160.658 409H30.9072Z" fill="#7ABE6F"/>
<ellipse cx="115" cy="302" rx="38" ry="34" fill="#C84C4C"/>
<path d="M130.399 170.124L114.542 283.284C114.193 285.776 116.128 288 118.643 288C120.713 288 122.464 286.472 122.746 284.422L138.716 168.078C138.898 166.753 138.541 165.411 137.726 164.351L134.216 159.784C122.255 143.601 94.7439 153.559 86.3712 159.784C79.673 164.763 88.9244 171.873 92.5127 172.703C115.613 157.909 125.581 161.238 129.761 167.104C130.38 167.973 130.547 169.067 130.399 170.124Z" fill="#543535"/>
</svg>
