<svg width="747" height="446" viewBox="0 0 747 446" fill="none" xmlns="http://www.w3.org/2000/svg">
<path d="M230.33 410.401L214 12.2389C291.567 -9.92689 378.32 3.00313 412 12.2389L389.546 410.401C327.493 435.03 257.546 420.663 230.33 410.401Z" fill="#BBD6D8"/>
<rect x="279" y="134" width="53" height="49" rx="3" fill="white"/>
<path d="M246.442 436L229 105.031C237.587 70.0509 262.989 119.607 274.617 148.757C300.402 189.468 345.631 153.84 373.975 123.564C379.264 117.914 389.287 121.793 388.957 129.525L375.913 436H246.442Z" fill="#A93636"/>
<rect x="323" y="170" width="51" height="49" rx="3" fill="white"/>
<path d="M637.453 307.615L727.275 308.236L726.804 376.41L636.981 375.789C622.024 373.792 581.942 378.818 541.271 414.898C490.431 459.998 440.064 436.924 423.261 431.126C406.459 425.329 181.943 418.095 108.845 434.634C50.3659 447.865 20.8807 435.919 13.4479 428.293C-8.5991 369.053 5.09964 282.411 14.7049 246.495C14.7573 238.92 33.9178 228.447 110.141 247.155C205.42 270.539 385.221 249.057 424.557 243.647C463.894 238.238 508.883 227.186 542.331 261.506C569.089 288.962 616.895 303.686 637.453 307.615Z" fill="#3C4596"/>
<path d="M33.4482 422.716C24.068 412.577 19.2575 399.741 17.1929 390.939C16.484 387.917 19.5048 385.484 22.5028 386.29C84.7475 403.017 395.224 387.741 560.071 376.864C562.355 376.713 563.13 380.285 561.093 381.327C528.811 397.834 521.395 420.53 521.998 430.725C364.293 433.617 45.7961 436.064 33.4482 422.716Z" fill="#A93636"/>
<path fill-rule="evenodd" clip-rule="evenodd" d="M674.845 381.336C674.845 379.518 673.462 378.022 671.691 377.842C673.422 371.47 679.248 366.784 686.168 366.784H731.532C738.452 366.784 744.278 371.47 746.009 377.841C744.237 378.021 742.855 379.517 742.855 381.336C742.855 383.276 744.428 384.849 746.368 384.849H746.532V389.867H746.368C744.428 389.867 742.855 391.44 742.855 393.38C742.855 395.32 744.428 396.893 746.368 396.893H746.532V402.915H746.368C744.428 402.915 742.855 404.487 742.855 406.427C742.855 408.367 744.428 409.94 746.368 409.94H746.532V419.976H671.168V409.94H671.332C673.272 409.94 674.845 408.367 674.845 406.427C674.845 404.487 673.272 402.914 671.332 402.914H671.168V396.892H671.332C673.272 396.892 674.845 395.32 674.845 393.38C674.845 391.44 673.272 389.867 671.332 389.867H671.168V384.849H671.332C673.272 384.849 674.845 383.276 674.845 381.336Z" fill="#A03939"/>
<path d="M671.168 370.762C671.168 365.239 675.645 360.762 681.168 360.762H736.532C742.055 360.762 746.532 365.239 746.532 370.762V377.824H671.168V370.762Z" fill="#A95858"/>
</svg>
