<svg width="422" height="695" viewBox="0 0 422 695" fill="none" xmlns="http://www.w3.org/2000/svg">
<circle cx="93.6444" cy="244.503" r="92.8114" fill="#45864B"/>
<circle cx="94.322" cy="245.18" r="81.2947" fill="#DEF3E0"/>
<path d="M96.406 177.435H88.4317C77.7114 177.435 70.4518 188.355 74.6005 198.24L94.3016 245.18L110.606 197.267C113.917 187.537 106.684 177.435 96.406 177.435Z" fill="#69C872"/>
<path d="M147.223 199.588L141.637 193.897C134.127 186.247 121.249 188.716 117.101 198.601L97.4026 245.543L143.017 223.615C152.28 219.162 154.423 206.923 147.223 199.588Z" fill="#69C872"/>
<path d="M92.238 316.991H100.212C110.933 316.991 118.192 306.071 114.044 296.186L94.3425 249.245L78.0377 297.158C74.7266 306.888 81.9601 316.991 92.238 316.991Z" fill="#69C872"/>
<path d="M143.248 298.607L148.927 293.009C156.562 285.484 154.067 272.611 144.174 268.483L97.192 248.88L119.213 294.45C123.685 303.704 135.928 305.822 143.248 298.607Z" fill="#69C872"/>
<path d="M166.132 249.974V242C166.132 231.28 155.212 224.02 145.327 228.169L98.3868 247.87L146.3 264.175C156.03 267.486 166.132 260.252 166.132 249.974Z" fill="#69C872"/>
<path d="M22.5117 245.806V253.78C22.5117 264.5 33.4317 271.76 43.3167 267.611L90.2573 247.91L42.3441 231.606C32.6141 228.294 22.5117 235.528 22.5117 245.806Z" fill="#69C872"/>
<path d="M42.8797 296.003L48.5697 301.59C56.2191 309.1 69.0498 306.395 73.0151 296.435L91.8446 249.138L46.6419 271.902C37.4624 276.525 35.546 288.802 42.8797 296.003Z" fill="#69C872"/>
<path d="M44.8744 196.491L39.3263 202.219C31.8676 209.919 34.6603 222.731 44.647 226.628L92.0706 245.137L68.9995 200.089C64.3144 190.942 52.0253 189.108 44.8744 196.491Z" fill="#69C872"/>
<path d="M261.354 396.421L106.516 256.859C240.384 218.531 371.985 240.889 421.052 256.859L289.822 396.421V679.018H261.354V396.421Z" fill="#BBD6D8"/>
<ellipse cx="273.851" cy="679.713" rx="112.483" ry="15.2755" fill="#BBD6D8"/>
<path fill-rule="evenodd" clip-rule="evenodd" d="M397.822 13.494L390.189 0.296143L307.147 48.321H307.042V289.207H322.288V57.1766L397.822 13.494Z" fill="#D8DA7B"/>
<path d="M273.055 389L173 300.585C186.613 274.061 234.258 314.187 283.265 283.582C322.47 259.098 366.757 268.847 384 276.781L273.055 389Z" fill="#A23A3A"/>
</svg>
