<svg width="179" height="592" viewBox="0 0 179 592" fill="none" xmlns="http://www.w3.org/2000/svg">
<path d="M161.38 17.6951C109.23 -13.0012 45.3064 4.90498 19.8637 17.6951C-12.7305 182.729 2.53516 282.987 19.8637 318.469C37.1923 353.952 123.422 377.469 161.38 318.469C191.746 271.27 174.033 98.2866 161.38 17.6951Z" fill="#BBD6D8"/>
<path d="M82.1641 580.46V333.322H97.4297V580.46H82.1641Z" fill="#BBD6D8"/>
<ellipse cx="90.003" cy="575.922" rx="88.7057" ry="15.6782" fill="#BBD6D8"/>
<path d="M89.8084 341.995C36.6268 341.45 23.779 301.383 24.0029 281.418C48.848 276.654 61.6058 300.476 97.866 281.418C126.874 266.172 153.375 275.066 163 281.418C160.762 301.837 142.99 342.539 89.8084 341.995Z" fill="#8C2A2A"/>
</svg>
