<svg width="176" height="581" viewBox="0 0 176 581" fill="none" xmlns="http://www.w3.org/2000/svg">
<path d="M158.782 16.8074C107.532 -13.3583 44.7141 4.23837 19.7111 16.8074C-12.3197 178.989 2.68207 277.514 19.7111 312.383C36.7401 347.252 121.48 370.363 158.782 312.383C188.623 265.999 171.215 96.0059 158.782 16.8074Z" fill="#BBD6D8"/>
<path d="M80.9344 569.846V326.979H95.9362V569.846H80.9344Z" fill="#BBD6D8"/>
<ellipse cx="88.6382" cy="565.385" rx="87.1724" ry="15.4072" fill="#BBD6D8"/>
<path d="M53.3664 322.905C9.25403 283.625 14.2283 167.06 22.5575 110.84C22.8274 109.019 24.1032 107.496 25.8892 107.048C44.0576 102.486 30.7062 126.994 53.3664 126.994C77.131 126.994 100.896 107.928 114.099 95.437C123.675 86.3771 140.847 97.1678 150.366 105.468C152.138 107.012 153.188 109.288 153.421 111.627C171.003 288.168 133.156 314.729 120.7 322.905C97.4633 338.157 65.9091 331.452 53.3664 322.905Z" fill="#BF2F5A"/>
<circle cx="83" cy="264" r="7" fill="white"/>
<circle cx="83" cy="264" r="7" fill="white"/>
<circle cx="83" cy="264" r="7" fill="white"/>
<circle cx="130" cy="213" r="7" fill="white"/>
<circle cx="130" cy="213" r="7" fill="white"/>
<circle cx="130" cy="213" r="7" fill="white"/>
<circle cx="108.5" cy="198.5" r="7.5" fill="white"/>
<circle cx="108.5" cy="198.5" r="7.5" fill="white"/>
<circle cx="108.5" cy="198.5" r="7.5" fill="white"/>
<ellipse cx="88.5" cy="304" rx="7.5" ry="7" fill="white"/>
<ellipse cx="88.5" cy="304" rx="7.5" ry="7" fill="white"/>
<ellipse cx="88.5" cy="304" rx="7.5" ry="7" fill="white"/>
<ellipse cx="108.5" cy="241.5" rx="14.5" ry="13.5" fill="white"/>
<ellipse cx="108.5" cy="241.5" rx="14.5" ry="13.5" fill="white"/>
<ellipse cx="108.5" cy="241.5" rx="14.5" ry="13.5" fill="white"/>
<ellipse cx="112" cy="281.5" rx="11" ry="10.5" fill="white"/>
<ellipse cx="112" cy="281.5" rx="11" ry="10.5" fill="white"/>
<ellipse cx="112" cy="281.5" rx="11" ry="10.5" fill="white"/>
</svg>
